<mxfile host="app.diagrams.net" agent="Mozilla/5.0 (X11; Linux x86_64; rv:109.0) Gecko/20100101 Firefox/115.0" version="24.7.6" pages="2">
  <diagram name="logistic_snd" id="JSCfo-LUoTpOqFQj4H-N">
    <mxGraphModel dx="861" dy="711" grid="1" gridSize="10" guides="1" tooltips="1" connect="1" arrows="1" fold="1" page="1" pageScale="1" pageWidth="910" pageHeight="400" math="0" shadow="0">
      <root>
        <mxCell id="0" />
        <mxCell id="1" parent="0" />
        <mxCell id="KSBxS-FBJ2kIle_naOMi-13" value="" style="group" parent="1" vertex="1" connectable="0">
          <mxGeometry x="120" y="200" width="60" height="80" as="geometry" />
        </mxCell>
        <mxCell id="KSBxS-FBJ2kIle_naOMi-7" value="&lt;font style=&quot;font-size: 24px;&quot;&gt;r&lt;/font&gt;" style="rounded=0;whiteSpace=wrap;html=1;fillColor=none;" parent="KSBxS-FBJ2kIle_naOMi-13" vertex="1">
          <mxGeometry width="60" height="80" as="geometry" />
        </mxCell>
        <mxCell id="KSBxS-FBJ2kIle_naOMi-8" value="" style="endArrow=none;html=1;rounded=0;" parent="KSBxS-FBJ2kIle_naOMi-13" edge="1">
          <mxGeometry width="50" height="50" relative="1" as="geometry">
            <mxPoint x="30" y="10" as="sourcePoint" />
            <mxPoint x="40" as="targetPoint" />
          </mxGeometry>
        </mxCell>
        <mxCell id="KSBxS-FBJ2kIle_naOMi-9" value="" style="endArrow=none;html=1;rounded=0;" parent="KSBxS-FBJ2kIle_naOMi-13" edge="1">
          <mxGeometry width="50" height="50" relative="1" as="geometry">
            <mxPoint x="30" y="10" as="sourcePoint" />
            <mxPoint x="20" as="targetPoint" />
          </mxGeometry>
        </mxCell>
        <mxCell id="KSBxS-FBJ2kIle_naOMi-14" value="" style="group" parent="1" vertex="1" connectable="0">
          <mxGeometry x="120" y="20" width="60" height="80" as="geometry" />
        </mxCell>
        <mxCell id="KSBxS-FBJ2kIle_naOMi-4" value="&lt;font style=&quot;font-size: 24px;&quot;&gt;x&lt;/font&gt;" style="rounded=0;whiteSpace=wrap;html=1;fillColor=none;" parent="KSBxS-FBJ2kIle_naOMi-14" vertex="1">
          <mxGeometry width="60" height="80" as="geometry" />
        </mxCell>
        <mxCell id="KSBxS-FBJ2kIle_naOMi-5" value="" style="endArrow=none;html=1;rounded=0;" parent="KSBxS-FBJ2kIle_naOMi-14" edge="1">
          <mxGeometry width="50" height="50" relative="1" as="geometry">
            <mxPoint x="30" y="10" as="sourcePoint" />
            <mxPoint x="40" as="targetPoint" />
          </mxGeometry>
        </mxCell>
        <mxCell id="KSBxS-FBJ2kIle_naOMi-6" value="" style="endArrow=none;html=1;rounded=0;" parent="KSBxS-FBJ2kIle_naOMi-14" edge="1">
          <mxGeometry width="50" height="50" relative="1" as="geometry">
            <mxPoint x="30" y="10" as="sourcePoint" />
            <mxPoint x="20" as="targetPoint" />
          </mxGeometry>
        </mxCell>
        <mxCell id="KSBxS-FBJ2kIle_naOMi-21" value="&lt;font style=&quot;font-size: 15px;&quot;&gt;round-robin frequency updates&lt;/font&gt;" style="rounded=1;whiteSpace=wrap;html=1;fillColor=none;" parent="1" vertex="1">
          <mxGeometry x="280" y="135" width="120" height="60" as="geometry" />
        </mxCell>
        <mxCell id="KSBxS-FBJ2kIle_naOMi-22" value="&lt;font style=&quot;font-size: 18px;&quot;&gt;frequency scaling&lt;br&gt;&lt;/font&gt;" style="rounded=1;whiteSpace=wrap;html=1;fillColor=none;" parent="1" vertex="1">
          <mxGeometry x="280" y="20" width="120" height="60" as="geometry" />
        </mxCell>
        <mxCell id="KSBxS-FBJ2kIle_naOMi-23" value="&lt;font style=&quot;font-size: 18px;&quot;&gt;slowly increment r over time&lt;br&gt;&lt;/font&gt;" style="rounded=1;whiteSpace=wrap;html=1;fillColor=none;" parent="1" vertex="1">
          <mxGeometry x="90" y="300" width="120" height="70" as="geometry" />
        </mxCell>
        <mxCell id="KSBxS-FBJ2kIle_naOMi-24" value="&lt;font style=&quot;font-size: 18px;&quot;&gt;iterate logistic map&lt;br&gt;&lt;/font&gt;" style="rounded=1;whiteSpace=wrap;html=1;fillColor=none;" parent="1" vertex="1">
          <mxGeometry x="90" y="120" width="120" height="60" as="geometry" />
        </mxCell>
        <mxCell id="KSBxS-FBJ2kIle_naOMi-26" value="" style="group" parent="1" vertex="1" connectable="0">
          <mxGeometry x="480" y="220" width="60" height="80" as="geometry" />
        </mxCell>
        <mxCell id="KSBxS-FBJ2kIle_naOMi-1" value="&lt;font style=&quot;font-size: 24px;&quot;&gt;freq. 7&lt;br&gt;&lt;/font&gt;" style="rounded=0;whiteSpace=wrap;html=1;fillColor=none;" parent="KSBxS-FBJ2kIle_naOMi-26" vertex="1">
          <mxGeometry width="60" height="80" as="geometry" />
        </mxCell>
        <mxCell id="KSBxS-FBJ2kIle_naOMi-2" value="" style="endArrow=none;html=1;rounded=0;" parent="KSBxS-FBJ2kIle_naOMi-26" edge="1">
          <mxGeometry width="50" height="50" relative="1" as="geometry">
            <mxPoint x="30" y="10" as="sourcePoint" />
            <mxPoint x="40" as="targetPoint" />
          </mxGeometry>
        </mxCell>
        <mxCell id="KSBxS-FBJ2kIle_naOMi-3" value="" style="endArrow=none;html=1;rounded=0;" parent="KSBxS-FBJ2kIle_naOMi-26" edge="1">
          <mxGeometry width="50" height="50" relative="1" as="geometry">
            <mxPoint x="30" y="10" as="sourcePoint" />
            <mxPoint x="20" as="targetPoint" />
          </mxGeometry>
        </mxCell>
        <mxCell id="KSBxS-FBJ2kIle_naOMi-27" value="" style="curved=1;endArrow=classic;html=1;rounded=0;entryX=1;entryY=0.5;entryDx=0;entryDy=0;exitX=1;exitY=0.5;exitDx=0;exitDy=0;" parent="1" source="KSBxS-FBJ2kIle_naOMi-24" target="KSBxS-FBJ2kIle_naOMi-4" edge="1">
          <mxGeometry width="50" height="50" relative="1" as="geometry">
            <mxPoint x="270" y="250" as="sourcePoint" />
            <mxPoint x="320" y="200" as="targetPoint" />
            <Array as="points">
              <mxPoint x="280" y="100" />
            </Array>
          </mxGeometry>
        </mxCell>
        <mxCell id="KSBxS-FBJ2kIle_naOMi-29" value="" style="curved=1;endArrow=classic;html=1;rounded=0;exitX=0;exitY=0.5;exitDx=0;exitDy=0;entryX=0;entryY=0.5;entryDx=0;entryDy=0;" parent="1" source="KSBxS-FBJ2kIle_naOMi-4" target="KSBxS-FBJ2kIle_naOMi-24" edge="1">
          <mxGeometry width="50" height="50" relative="1" as="geometry">
            <mxPoint x="270" y="250" as="sourcePoint" />
            <mxPoint x="320" y="200" as="targetPoint" />
            <Array as="points">
              <mxPoint x="40" y="50" />
              <mxPoint x="40" y="150" />
            </Array>
          </mxGeometry>
        </mxCell>
        <mxCell id="KSBxS-FBJ2kIle_naOMi-30" value="" style="curved=1;endArrow=classic;html=1;rounded=0;exitX=1;exitY=0.25;exitDx=0;exitDy=0;entryX=1;entryY=0.75;entryDx=0;entryDy=0;" parent="1" source="KSBxS-FBJ2kIle_naOMi-7" target="KSBxS-FBJ2kIle_naOMi-24" edge="1">
          <mxGeometry width="50" height="50" relative="1" as="geometry">
            <mxPoint x="270" y="250" as="sourcePoint" />
            <mxPoint x="320" y="200" as="targetPoint" />
            <Array as="points">
              <mxPoint x="230" y="210" />
              <mxPoint x="250" y="180" />
            </Array>
          </mxGeometry>
        </mxCell>
        <mxCell id="KSBxS-FBJ2kIle_naOMi-31" value="" style="curved=1;endArrow=classic;html=1;rounded=0;exitX=1;exitY=0.75;exitDx=0;exitDy=0;entryX=1;entryY=0.5;entryDx=0;entryDy=0;" parent="1" source="KSBxS-FBJ2kIle_naOMi-7" target="KSBxS-FBJ2kIle_naOMi-23" edge="1">
          <mxGeometry width="50" height="50" relative="1" as="geometry">
            <mxPoint x="270" y="250" as="sourcePoint" />
            <mxPoint x="320" y="200" as="targetPoint" />
            <Array as="points">
              <mxPoint x="240" y="240" />
              <mxPoint x="240" y="300" />
            </Array>
          </mxGeometry>
        </mxCell>
        <mxCell id="KSBxS-FBJ2kIle_naOMi-32" value="" style="curved=1;endArrow=classic;html=1;rounded=0;exitX=0;exitY=0.5;exitDx=0;exitDy=0;entryX=-0.033;entryY=0.675;entryDx=0;entryDy=0;entryPerimeter=0;" parent="1" source="KSBxS-FBJ2kIle_naOMi-23" target="KSBxS-FBJ2kIle_naOMi-7" edge="1">
          <mxGeometry width="50" height="50" relative="1" as="geometry">
            <mxPoint x="270" y="250" as="sourcePoint" />
            <mxPoint x="320" y="200" as="targetPoint" />
            <Array as="points">
              <mxPoint x="50" y="330" />
              <mxPoint x="20" y="270" />
            </Array>
          </mxGeometry>
        </mxCell>
        <mxCell id="KSBxS-FBJ2kIle_naOMi-33" value="" style="endArrow=classic;html=1;rounded=0;exitX=1;exitY=0.25;exitDx=0;exitDy=0;entryX=0;entryY=0.5;entryDx=0;entryDy=0;" parent="1" source="KSBxS-FBJ2kIle_naOMi-4" target="KSBxS-FBJ2kIle_naOMi-22" edge="1">
          <mxGeometry width="50" height="50" relative="1" as="geometry">
            <mxPoint x="270" y="250" as="sourcePoint" />
            <mxPoint x="320" y="200" as="targetPoint" />
          </mxGeometry>
        </mxCell>
        <mxCell id="KSBxS-FBJ2kIle_naOMi-34" value="" style="group" parent="1" vertex="1" connectable="0">
          <mxGeometry x="480" y="20" width="60" height="80" as="geometry" />
        </mxCell>
        <mxCell id="KSBxS-FBJ2kIle_naOMi-35" value="&lt;font style=&quot;font-size: 24px;&quot;&gt;freq. 0&lt;br&gt;&lt;/font&gt;" style="rounded=0;whiteSpace=wrap;html=1;fillColor=none;" parent="KSBxS-FBJ2kIle_naOMi-34" vertex="1">
          <mxGeometry width="60" height="80" as="geometry" />
        </mxCell>
        <mxCell id="KSBxS-FBJ2kIle_naOMi-36" value="" style="endArrow=none;html=1;rounded=0;" parent="KSBxS-FBJ2kIle_naOMi-34" edge="1">
          <mxGeometry width="50" height="50" relative="1" as="geometry">
            <mxPoint x="30" y="10" as="sourcePoint" />
            <mxPoint x="40" as="targetPoint" />
          </mxGeometry>
        </mxCell>
        <mxCell id="KSBxS-FBJ2kIle_naOMi-37" value="" style="endArrow=none;html=1;rounded=0;" parent="KSBxS-FBJ2kIle_naOMi-34" edge="1">
          <mxGeometry width="50" height="50" relative="1" as="geometry">
            <mxPoint x="30" y="10" as="sourcePoint" />
            <mxPoint x="20" as="targetPoint" />
          </mxGeometry>
        </mxCell>
        <mxCell id="KSBxS-FBJ2kIle_naOMi-40" value="&lt;font style=&quot;font-size: 15px;&quot; color=&quot;#77767b&quot;&gt;round-robin and mixer tweaks&lt;/font&gt;" style="rounded=1;whiteSpace=wrap;html=1;fillColor=none;strokeColor=#77767b;" parent="1" vertex="1">
          <mxGeometry x="280" y="305" width="120" height="60" as="geometry" />
        </mxCell>
        <mxCell id="KSBxS-FBJ2kIle_naOMi-41" value="&lt;font style=&quot;font-size: 18px;&quot;&gt;mixer/PWM&lt;/font&gt;" style="rounded=1;whiteSpace=wrap;html=1;fillColor=none;" parent="1" vertex="1">
          <mxGeometry x="760" y="135" width="120" height="60" as="geometry" />
        </mxCell>
        <mxCell id="KSBxS-FBJ2kIle_naOMi-42" value="&lt;font style=&quot;font-size: 18px;&quot;&gt;NCO 7&lt;br&gt;&lt;/font&gt;" style="rounded=1;whiteSpace=wrap;html=1;fillColor=none;" parent="1" vertex="1">
          <mxGeometry x="570" y="230" width="120" height="60" as="geometry" />
        </mxCell>
        <mxCell id="KSBxS-FBJ2kIle_naOMi-43" value="&lt;font style=&quot;font-size: 18px;&quot;&gt;NCO 0&lt;br&gt;&lt;/font&gt;" style="rounded=1;whiteSpace=wrap;html=1;fillColor=none;" parent="1" vertex="1">
          <mxGeometry x="570" y="30" width="120" height="60" as="geometry" />
        </mxCell>
        <mxCell id="KSBxS-FBJ2kIle_naOMi-44" value="" style="endArrow=classic;html=1;rounded=0;exitX=0.5;exitY=1;exitDx=0;exitDy=0;entryX=0.5;entryY=0;entryDx=0;entryDy=0;" parent="1" source="KSBxS-FBJ2kIle_naOMi-22" target="KSBxS-FBJ2kIle_naOMi-21" edge="1">
          <mxGeometry width="50" height="50" relative="1" as="geometry">
            <mxPoint x="270" y="250" as="sourcePoint" />
            <mxPoint x="320" y="200" as="targetPoint" />
          </mxGeometry>
        </mxCell>
        <mxCell id="KSBxS-FBJ2kIle_naOMi-78" value="" style="group" parent="1" vertex="1" connectable="0">
          <mxGeometry x="505" y="140" width="10" height="50" as="geometry" />
        </mxCell>
        <mxCell id="KSBxS-FBJ2kIle_naOMi-73" value="" style="ellipse;whiteSpace=wrap;html=1;aspect=fixed;fillColor=none;" parent="KSBxS-FBJ2kIle_naOMi-78" vertex="1">
          <mxGeometry y="20" width="10" height="10" as="geometry" />
        </mxCell>
        <mxCell id="KSBxS-FBJ2kIle_naOMi-74" value="" style="ellipse;whiteSpace=wrap;html=1;aspect=fixed;fillColor=none;" parent="KSBxS-FBJ2kIle_naOMi-78" vertex="1">
          <mxGeometry y="40" width="10" height="10" as="geometry" />
        </mxCell>
        <mxCell id="KSBxS-FBJ2kIle_naOMi-75" value="" style="ellipse;whiteSpace=wrap;html=1;aspect=fixed;fillColor=none;" parent="KSBxS-FBJ2kIle_naOMi-78" vertex="1">
          <mxGeometry width="10" height="10" as="geometry" />
        </mxCell>
        <mxCell id="KSBxS-FBJ2kIle_naOMi-79" value="" style="endArrow=classic;html=1;rounded=0;exitX=1;exitY=0.25;exitDx=0;exitDy=0;entryX=0;entryY=1;entryDx=0;entryDy=0;" parent="1" source="KSBxS-FBJ2kIle_naOMi-21" target="KSBxS-FBJ2kIle_naOMi-35" edge="1">
          <mxGeometry width="50" height="50" relative="1" as="geometry">
            <mxPoint x="470" y="250" as="sourcePoint" />
            <mxPoint x="520" y="200" as="targetPoint" />
          </mxGeometry>
        </mxCell>
        <mxCell id="KSBxS-FBJ2kIle_naOMi-80" value="" style="endArrow=classic;html=1;rounded=0;exitX=1;exitY=0.75;exitDx=0;exitDy=0;entryX=0;entryY=0.5;entryDx=0;entryDy=0;" parent="1" source="KSBxS-FBJ2kIle_naOMi-21" target="KSBxS-FBJ2kIle_naOMi-1" edge="1">
          <mxGeometry width="50" height="50" relative="1" as="geometry">
            <mxPoint x="470" y="250" as="sourcePoint" />
            <mxPoint x="520" y="200" as="targetPoint" />
          </mxGeometry>
        </mxCell>
        <mxCell id="KSBxS-FBJ2kIle_naOMi-81" value="" style="endArrow=classic;html=1;rounded=0;exitX=1;exitY=0.367;exitDx=0;exitDy=0;exitPerimeter=0;" parent="1" source="KSBxS-FBJ2kIle_naOMi-21" edge="1">
          <mxGeometry width="50" height="50" relative="1" as="geometry">
            <mxPoint x="470" y="250" as="sourcePoint" />
            <mxPoint x="480" y="140" as="targetPoint" />
          </mxGeometry>
        </mxCell>
        <mxCell id="KSBxS-FBJ2kIle_naOMi-82" value="" style="endArrow=classic;html=1;rounded=0;exitX=1;exitY=0.617;exitDx=0;exitDy=0;exitPerimeter=0;" parent="1" source="KSBxS-FBJ2kIle_naOMi-21" edge="1">
          <mxGeometry width="50" height="50" relative="1" as="geometry">
            <mxPoint x="470" y="250" as="sourcePoint" />
            <mxPoint x="480" y="210" as="targetPoint" />
          </mxGeometry>
        </mxCell>
        <mxCell id="KSBxS-FBJ2kIle_naOMi-83" value="" style="group" parent="1" vertex="1" connectable="0">
          <mxGeometry x="625" y="140" width="10" height="50" as="geometry" />
        </mxCell>
        <mxCell id="KSBxS-FBJ2kIle_naOMi-84" value="" style="ellipse;whiteSpace=wrap;html=1;aspect=fixed;fillColor=none;" parent="KSBxS-FBJ2kIle_naOMi-83" vertex="1">
          <mxGeometry y="20" width="10" height="10" as="geometry" />
        </mxCell>
        <mxCell id="KSBxS-FBJ2kIle_naOMi-85" value="" style="ellipse;whiteSpace=wrap;html=1;aspect=fixed;fillColor=none;" parent="KSBxS-FBJ2kIle_naOMi-83" vertex="1">
          <mxGeometry y="40" width="10" height="10" as="geometry" />
        </mxCell>
        <mxCell id="KSBxS-FBJ2kIle_naOMi-86" value="" style="ellipse;whiteSpace=wrap;html=1;aspect=fixed;fillColor=none;" parent="KSBxS-FBJ2kIle_naOMi-83" vertex="1">
          <mxGeometry width="10" height="10" as="geometry" />
        </mxCell>
        <mxCell id="KSBxS-FBJ2kIle_naOMi-87" value="" style="endArrow=classic;html=1;rounded=0;exitX=1;exitY=0.5;exitDx=0;exitDy=0;entryX=0;entryY=0.5;entryDx=0;entryDy=0;" parent="1" source="KSBxS-FBJ2kIle_naOMi-35" target="KSBxS-FBJ2kIle_naOMi-43" edge="1">
          <mxGeometry width="50" height="50" relative="1" as="geometry">
            <mxPoint x="400" y="290" as="sourcePoint" />
            <mxPoint x="450" y="240" as="targetPoint" />
          </mxGeometry>
        </mxCell>
        <mxCell id="KSBxS-FBJ2kIle_naOMi-88" value="" style="endArrow=classic;html=1;rounded=0;exitX=1;exitY=0.5;exitDx=0;exitDy=0;entryX=0;entryY=0.5;entryDx=0;entryDy=0;" parent="1" source="KSBxS-FBJ2kIle_naOMi-1" target="KSBxS-FBJ2kIle_naOMi-42" edge="1">
          <mxGeometry width="50" height="50" relative="1" as="geometry">
            <mxPoint x="400" y="290" as="sourcePoint" />
            <mxPoint x="450" y="240" as="targetPoint" />
          </mxGeometry>
        </mxCell>
        <mxCell id="KSBxS-FBJ2kIle_naOMi-89" value="" style="endArrow=classic;html=1;rounded=0;exitX=0.5;exitY=1;exitDx=0;exitDy=0;entryX=0.5;entryY=0;entryDx=0;entryDy=0;" parent="1" source="KSBxS-FBJ2kIle_naOMi-41" target="KSBxS-FBJ2kIle_naOMi-90" edge="1">
          <mxGeometry width="50" height="50" relative="1" as="geometry">
            <mxPoint x="490" y="290" as="sourcePoint" />
            <mxPoint x="760" y="20" as="targetPoint" />
          </mxGeometry>
        </mxCell>
        <mxCell id="KSBxS-FBJ2kIle_naOMi-90" value="&lt;font style=&quot;font-size: 18px;&quot;&gt;audio out&lt;br&gt;&lt;/font&gt;" style="text;html=1;align=center;verticalAlign=middle;whiteSpace=wrap;rounded=0;" parent="1" vertex="1">
          <mxGeometry x="770" y="245" width="100" height="30" as="geometry" />
        </mxCell>
        <mxCell id="KSBxS-FBJ2kIle_naOMi-91" value="" style="endArrow=classic;html=1;rounded=0;exitX=1;exitY=0.5;exitDx=0;exitDy=0;entryX=0.25;entryY=0;entryDx=0;entryDy=0;" parent="1" source="KSBxS-FBJ2kIle_naOMi-43" target="KSBxS-FBJ2kIle_naOMi-41" edge="1">
          <mxGeometry width="50" height="50" relative="1" as="geometry">
            <mxPoint x="490" y="290" as="sourcePoint" />
            <mxPoint x="540" y="240" as="targetPoint" />
          </mxGeometry>
        </mxCell>
        <mxCell id="KSBxS-FBJ2kIle_naOMi-92" value="" style="endArrow=classic;html=1;rounded=0;exitX=1;exitY=0.5;exitDx=0;exitDy=0;entryX=0.25;entryY=1;entryDx=0;entryDy=0;" parent="1" source="KSBxS-FBJ2kIle_naOMi-42" target="KSBxS-FBJ2kIle_naOMi-41" edge="1">
          <mxGeometry width="50" height="50" relative="1" as="geometry">
            <mxPoint x="490" y="290" as="sourcePoint" />
            <mxPoint x="540" y="240" as="targetPoint" />
          </mxGeometry>
        </mxCell>
        <mxCell id="KSBxS-FBJ2kIle_naOMi-94" value="" style="endArrow=classic;html=1;rounded=0;strokeColor=#77767b;exitX=0.5;exitY=0;exitDx=0;exitDy=0;entryX=0.5;entryY=1;entryDx=0;entryDy=0;" parent="1" source="KSBxS-FBJ2kIle_naOMi-40" target="KSBxS-FBJ2kIle_naOMi-21" edge="1">
          <mxGeometry width="50" height="50" relative="1" as="geometry">
            <mxPoint x="515" y="425" as="sourcePoint" />
            <mxPoint x="565" y="375" as="targetPoint" />
          </mxGeometry>
        </mxCell>
        <mxCell id="KSBxS-FBJ2kIle_naOMi-95" value="" style="curved=1;endArrow=classic;html=1;rounded=0;strokeColor=#77767b;exitX=1;exitY=0.5;exitDx=0;exitDy=0;entryX=0.25;entryY=0;entryDx=0;entryDy=0;" parent="1" source="KSBxS-FBJ2kIle_naOMi-7" target="KSBxS-FBJ2kIle_naOMi-40" edge="1">
          <mxGeometry width="50" height="50" relative="1" as="geometry">
            <mxPoint x="490" y="391" as="sourcePoint" />
            <mxPoint x="540" y="341" as="targetPoint" />
            <Array as="points">
              <mxPoint x="240" y="230" />
              <mxPoint x="300" y="240" />
            </Array>
          </mxGeometry>
        </mxCell>
        <mxCell id="KSBxS-FBJ2kIle_naOMi-96" value="" style="curved=1;endArrow=classic;html=1;rounded=0;strokeColor=#77767b;exitX=1;exitY=0.5;exitDx=0;exitDy=0;entryX=0.342;entryY=1;entryDx=0;entryDy=0;entryPerimeter=0;" parent="1" source="KSBxS-FBJ2kIle_naOMi-40" target="KSBxS-FBJ2kIle_naOMi-41" edge="1">
          <mxGeometry width="50" height="50" relative="1" as="geometry">
            <mxPoint x="710" y="440" as="sourcePoint" />
            <mxPoint x="760" y="390" as="targetPoint" />
            <Array as="points">
              <mxPoint x="580" y="380" />
              <mxPoint x="740" y="300" />
            </Array>
          </mxGeometry>
        </mxCell>
      </root>
    </mxGraphModel>
  </diagram>
  <diagram name="munching squares" id="FSYZVWb4I5WaymUbvVpj">
    <mxGraphModel dx="861" dy="711" grid="1" gridSize="10" guides="1" tooltips="1" connect="1" arrows="1" fold="1" page="1" pageScale="1" pageWidth="1260" pageHeight="370" math="0" shadow="0">
      <root>
        <mxCell id="9DFbFG8TX5uSBaYMTuKA-0" />
        <mxCell id="9DFbFG8TX5uSBaYMTuKA-1" parent="9DFbFG8TX5uSBaYMTuKA-0" />
        <mxCell id="9DFbFG8TX5uSBaYMTuKA-30" value="&lt;font style=&quot;font-size: 18px;&quot;&gt;color index for lag 0&lt;br&gt;&lt;/font&gt;" style="rounded=1;whiteSpace=wrap;html=1;fillColor=none;" parent="9DFbFG8TX5uSBaYMTuKA-1" vertex="1">
          <mxGeometry x="509" y="10" width="95" height="50" as="geometry" />
        </mxCell>
        <mxCell id="9DFbFG8TX5uSBaYMTuKA-31" value="&lt;font style=&quot;font-size: 18px;&quot;&gt;−0&lt;/font&gt;" style="rounded=1;whiteSpace=wrap;html=1;fillColor=none;" parent="9DFbFG8TX5uSBaYMTuKA-1" vertex="1">
          <mxGeometry x="170" y="10" width="60" height="60" as="geometry" />
        </mxCell>
        <mxCell id="9DFbFG8TX5uSBaYMTuKA-65" value="" style="group" parent="9DFbFG8TX5uSBaYMTuKA-1" vertex="1" connectable="0">
          <mxGeometry x="551.5" y="143" width="10" height="50" as="geometry" />
        </mxCell>
        <mxCell id="9DFbFG8TX5uSBaYMTuKA-66" value="" style="ellipse;whiteSpace=wrap;html=1;aspect=fixed;fillColor=none;" parent="9DFbFG8TX5uSBaYMTuKA-65" vertex="1">
          <mxGeometry y="20" width="10" height="10" as="geometry" />
        </mxCell>
        <mxCell id="9DFbFG8TX5uSBaYMTuKA-67" value="" style="ellipse;whiteSpace=wrap;html=1;aspect=fixed;fillColor=none;" parent="9DFbFG8TX5uSBaYMTuKA-65" vertex="1">
          <mxGeometry y="40" width="10" height="10" as="geometry" />
        </mxCell>
        <mxCell id="9DFbFG8TX5uSBaYMTuKA-68" value="" style="ellipse;whiteSpace=wrap;html=1;aspect=fixed;fillColor=default;" parent="9DFbFG8TX5uSBaYMTuKA-65" vertex="1">
          <mxGeometry width="10" height="10" as="geometry" />
        </mxCell>
        <mxCell id="aZFD48vA2yIswFnuNZRW-20" value="" style="group" parent="9DFbFG8TX5uSBaYMTuKA-1" vertex="1" connectable="0">
          <mxGeometry x="10" y="100" width="60" height="80" as="geometry" />
        </mxCell>
        <mxCell id="aZFD48vA2yIswFnuNZRW-21" value="&lt;font style=&quot;font-size: 16px;&quot;&gt;9-bit frame counter&lt;br&gt;&lt;/font&gt;" style="rounded=0;whiteSpace=wrap;html=1;fillColor=none;" parent="aZFD48vA2yIswFnuNZRW-20" vertex="1">
          <mxGeometry width="60" height="80" as="geometry" />
        </mxCell>
        <mxCell id="aZFD48vA2yIswFnuNZRW-22" value="" style="endArrow=none;html=1;rounded=0;" parent="aZFD48vA2yIswFnuNZRW-20" edge="1">
          <mxGeometry width="50" height="50" relative="1" as="geometry">
            <mxPoint x="30" y="10" as="sourcePoint" />
            <mxPoint x="40" as="targetPoint" />
          </mxGeometry>
        </mxCell>
        <mxCell id="aZFD48vA2yIswFnuNZRW-23" value="" style="endArrow=none;html=1;rounded=0;" parent="aZFD48vA2yIswFnuNZRW-20" edge="1">
          <mxGeometry width="50" height="50" relative="1" as="geometry">
            <mxPoint x="30" y="10" as="sourcePoint" />
            <mxPoint x="20" as="targetPoint" />
          </mxGeometry>
        </mxCell>
        <mxCell id="7M_Q38QbQxJL7odkyX7O-1" value="" style="shape=xor;whiteSpace=wrap;html=1;fillColor=none;strokeColor=#000000;direction=north;rotation=90;" parent="9DFbFG8TX5uSBaYMTuKA-1" vertex="1">
          <mxGeometry x="740" y="122" width="120" height="80" as="geometry" />
        </mxCell>
        <mxCell id="DK-BshNHC_iG3awBFLn6-0" value="" style="shape=or;whiteSpace=wrap;html=1;direction=north;fillColor=none;strokeColor=#000000;rotation=90;" parent="9DFbFG8TX5uSBaYMTuKA-1" vertex="1">
          <mxGeometry x="630" y="35" width="60" height="67.5" as="geometry" />
        </mxCell>
        <mxCell id="DK-BshNHC_iG3awBFLn6-2" value="VSync" style="text;html=1;align=center;verticalAlign=middle;whiteSpace=wrap;rounded=0;fontSize=18;" parent="9DFbFG8TX5uSBaYMTuKA-1" vertex="1">
          <mxGeometry x="10" y="40" width="60" height="30" as="geometry" />
        </mxCell>
        <mxCell id="DK-BshNHC_iG3awBFLn6-3" value="X coordinate" style="text;html=1;align=center;verticalAlign=middle;whiteSpace=wrap;rounded=0;fontSize=18;" parent="9DFbFG8TX5uSBaYMTuKA-1" vertex="1">
          <mxGeometry x="350" y="330" width="120" height="30" as="geometry" />
        </mxCell>
        <mxCell id="DK-BshNHC_iG3awBFLn6-4" value="" style="endArrow=classic;html=1;rounded=0;exitX=0.5;exitY=1;exitDx=0;exitDy=0;entryX=0.5;entryY=0;entryDx=0;entryDy=0;" parent="9DFbFG8TX5uSBaYMTuKA-1" source="DK-BshNHC_iG3awBFLn6-2" target="aZFD48vA2yIswFnuNZRW-21" edge="1">
          <mxGeometry width="50" height="50" relative="1" as="geometry">
            <mxPoint x="220" y="410" as="sourcePoint" />
            <mxPoint x="270" y="360" as="targetPoint" />
          </mxGeometry>
        </mxCell>
        <mxCell id="DK-BshNHC_iG3awBFLn6-5" value="&lt;div&gt;{R, G, B}&lt;/div&gt;&lt;div&gt;components&lt;/div&gt;" style="text;html=1;align=center;verticalAlign=middle;whiteSpace=wrap;rounded=0;fontSize=18;" parent="9DFbFG8TX5uSBaYMTuKA-1" vertex="1">
          <mxGeometry x="1150" y="179.5" width="110" height="50" as="geometry" />
        </mxCell>
        <mxCell id="DK-BshNHC_iG3awBFLn6-6" value="&lt;div&gt;Y coordinate&lt;/div&gt;" style="text;html=1;align=center;verticalAlign=middle;whiteSpace=wrap;rounded=0;fontSize=18;" parent="9DFbFG8TX5uSBaYMTuKA-1" vertex="1">
          <mxGeometry x="200" y="330" width="120" height="30" as="geometry" />
        </mxCell>
        <mxCell id="zam5Z8ljLihx1HflZ7UX-0" value="&lt;font style=&quot;font-size: 16px;&quot;&gt;convert 3-bit index into 6-bit color&lt;br&gt;&lt;/font&gt;" style="rounded=1;whiteSpace=wrap;html=1;fillColor=none;" parent="9DFbFG8TX5uSBaYMTuKA-1" vertex="1">
          <mxGeometry x="880" y="132" width="120" height="60" as="geometry" />
        </mxCell>
        <mxCell id="zam5Z8ljLihx1HflZ7UX-1" value="&lt;font style=&quot;font-size: 15px;&quot;&gt;is within addressable region?&lt;br&gt;&lt;/font&gt;" style="rounded=1;whiteSpace=wrap;html=1;fillColor=none;" parent="9DFbFG8TX5uSBaYMTuKA-1" vertex="1">
          <mxGeometry x="880" y="212" width="120" height="60" as="geometry" />
        </mxCell>
        <mxCell id="zam5Z8ljLihx1HflZ7UX-2" value="" style="endArrow=classic;html=1;rounded=0;exitX=1;exitY=0.5;exitDx=0;exitDy=0;exitPerimeter=0;entryX=0;entryY=0.5;entryDx=0;entryDy=0;" parent="9DFbFG8TX5uSBaYMTuKA-1" source="7M_Q38QbQxJL7odkyX7O-1" target="zam5Z8ljLihx1HflZ7UX-0" edge="1">
          <mxGeometry width="50" height="50" relative="1" as="geometry">
            <mxPoint x="900" y="442" as="sourcePoint" />
            <mxPoint x="950" y="392" as="targetPoint" />
          </mxGeometry>
        </mxCell>
        <mxCell id="zam5Z8ljLihx1HflZ7UX-3" value="" style="shape=or;whiteSpace=wrap;html=1;direction=north;fillColor=none;strokeColor=#000000;rotation=90;" parent="9DFbFG8TX5uSBaYMTuKA-1" vertex="1">
          <mxGeometry x="1044.75" y="167.25" width="65" height="74.5" as="geometry" />
        </mxCell>
        <mxCell id="zam5Z8ljLihx1HflZ7UX-4" value="" style="endArrow=classic;html=1;rounded=0;exitX=1;exitY=0.5;exitDx=0;exitDy=0;entryX=0;entryY=0.25;entryDx=0;entryDy=0;entryPerimeter=0;" parent="9DFbFG8TX5uSBaYMTuKA-1" source="zam5Z8ljLihx1HflZ7UX-0" target="zam5Z8ljLihx1HflZ7UX-3" edge="1">
          <mxGeometry width="50" height="50" relative="1" as="geometry">
            <mxPoint x="900" y="442" as="sourcePoint" />
            <mxPoint x="950" y="392" as="targetPoint" />
          </mxGeometry>
        </mxCell>
        <mxCell id="zam5Z8ljLihx1HflZ7UX-5" value="" style="endArrow=classic;html=1;rounded=0;exitX=1;exitY=0.5;exitDx=0;exitDy=0;entryX=0;entryY=0.75;entryDx=0;entryDy=0;entryPerimeter=0;" parent="9DFbFG8TX5uSBaYMTuKA-1" source="zam5Z8ljLihx1HflZ7UX-1" target="zam5Z8ljLihx1HflZ7UX-3" edge="1">
          <mxGeometry width="50" height="50" relative="1" as="geometry">
            <mxPoint x="950" y="442" as="sourcePoint" />
            <mxPoint x="1000" y="392" as="targetPoint" />
          </mxGeometry>
        </mxCell>
        <mxCell id="zam5Z8ljLihx1HflZ7UX-6" value="" style="endArrow=classic;html=1;rounded=0;exitX=1;exitY=0.5;exitDx=0;exitDy=0;exitPerimeter=0;entryX=0;entryY=0.5;entryDx=0;entryDy=0;" parent="9DFbFG8TX5uSBaYMTuKA-1" source="zam5Z8ljLihx1HflZ7UX-3" target="DK-BshNHC_iG3awBFLn6-5" edge="1">
          <mxGeometry width="50" height="50" relative="1" as="geometry">
            <mxPoint x="950" y="442" as="sourcePoint" />
            <mxPoint x="1000" y="392" as="targetPoint" />
          </mxGeometry>
        </mxCell>
        <mxCell id="zam5Z8ljLihx1HflZ7UX-7" value="&lt;font style=&quot;font-size: 18px;&quot;&gt;−1&lt;/font&gt;" style="rounded=1;whiteSpace=wrap;html=1;fillColor=none;" parent="9DFbFG8TX5uSBaYMTuKA-1" vertex="1">
          <mxGeometry x="170" y="80" width="60" height="60" as="geometry" />
        </mxCell>
        <mxCell id="zam5Z8ljLihx1HflZ7UX-8" value="&lt;font style=&quot;font-size: 18px;&quot;&gt;−14&lt;/font&gt;" style="rounded=1;whiteSpace=wrap;html=1;fillColor=none;" parent="9DFbFG8TX5uSBaYMTuKA-1" vertex="1">
          <mxGeometry x="170" y="210" width="60" height="60" as="geometry" />
        </mxCell>
        <mxCell id="zam5Z8ljLihx1HflZ7UX-15" value="" style="group" parent="9DFbFG8TX5uSBaYMTuKA-1" vertex="1" connectable="0">
          <mxGeometry x="195" y="150" width="10" height="50" as="geometry" />
        </mxCell>
        <mxCell id="zam5Z8ljLihx1HflZ7UX-16" value="" style="ellipse;whiteSpace=wrap;html=1;aspect=fixed;fillColor=none;" parent="zam5Z8ljLihx1HflZ7UX-15" vertex="1">
          <mxGeometry y="20" width="10" height="10" as="geometry" />
        </mxCell>
        <mxCell id="zam5Z8ljLihx1HflZ7UX-17" value="" style="ellipse;whiteSpace=wrap;html=1;aspect=fixed;fillColor=none;" parent="zam5Z8ljLihx1HflZ7UX-15" vertex="1">
          <mxGeometry y="40" width="10" height="10" as="geometry" />
        </mxCell>
        <mxCell id="zam5Z8ljLihx1HflZ7UX-18" value="" style="ellipse;whiteSpace=wrap;html=1;aspect=fixed;fillColor=none;" parent="zam5Z8ljLihx1HflZ7UX-15" vertex="1">
          <mxGeometry width="10" height="10" as="geometry" />
        </mxCell>
        <mxCell id="zam5Z8ljLihx1HflZ7UX-19" value="" style="group" parent="9DFbFG8TX5uSBaYMTuKA-1" vertex="1" connectable="0">
          <mxGeometry x="460" y="172" width="10" height="50" as="geometry" />
        </mxCell>
        <mxCell id="zam5Z8ljLihx1HflZ7UX-20" value="" style="ellipse;whiteSpace=wrap;html=1;aspect=fixed;fillColor=none;" parent="zam5Z8ljLihx1HflZ7UX-19" vertex="1">
          <mxGeometry y="20" width="10" height="10" as="geometry" />
        </mxCell>
        <mxCell id="zam5Z8ljLihx1HflZ7UX-21" value="" style="ellipse;whiteSpace=wrap;html=1;aspect=fixed;fillColor=none;" parent="zam5Z8ljLihx1HflZ7UX-19" vertex="1">
          <mxGeometry y="40" width="10" height="10" as="geometry" />
        </mxCell>
        <mxCell id="zam5Z8ljLihx1HflZ7UX-22" value="" style="ellipse;whiteSpace=wrap;html=1;aspect=fixed;fillColor=none;" parent="zam5Z8ljLihx1HflZ7UX-19" vertex="1">
          <mxGeometry width="10" height="10" as="geometry" />
        </mxCell>
        <mxCell id="zam5Z8ljLihx1HflZ7UX-23" value="" style="endArrow=classic;html=1;rounded=0;exitX=1;exitY=0.25;exitDx=0;exitDy=0;entryX=0;entryY=0.5;entryDx=0;entryDy=0;" parent="9DFbFG8TX5uSBaYMTuKA-1" source="aZFD48vA2yIswFnuNZRW-21" target="9DFbFG8TX5uSBaYMTuKA-31" edge="1">
          <mxGeometry width="50" height="50" relative="1" as="geometry">
            <mxPoint x="-61" y="265" as="sourcePoint" />
            <mxPoint x="-11" y="215" as="targetPoint" />
          </mxGeometry>
        </mxCell>
        <mxCell id="zam5Z8ljLihx1HflZ7UX-24" value="" style="endArrow=classic;html=1;rounded=0;exitX=1;exitY=0.5;exitDx=0;exitDy=0;entryX=0;entryY=0.5;entryDx=0;entryDy=0;" parent="9DFbFG8TX5uSBaYMTuKA-1" source="aZFD48vA2yIswFnuNZRW-21" target="zam5Z8ljLihx1HflZ7UX-7" edge="1">
          <mxGeometry width="50" height="50" relative="1" as="geometry">
            <mxPoint x="-51" y="275" as="sourcePoint" />
            <mxPoint x="-1" y="225" as="targetPoint" />
          </mxGeometry>
        </mxCell>
        <mxCell id="zam5Z8ljLihx1HflZ7UX-25" value="" style="endArrow=classic;html=1;rounded=0;exitX=1;exitY=0.75;exitDx=0;exitDy=0;entryX=0;entryY=0.5;entryDx=0;entryDy=0;" parent="9DFbFG8TX5uSBaYMTuKA-1" source="aZFD48vA2yIswFnuNZRW-21" target="zam5Z8ljLihx1HflZ7UX-8" edge="1">
          <mxGeometry width="50" height="50" relative="1" as="geometry">
            <mxPoint x="-41" y="285" as="sourcePoint" />
            <mxPoint x="9" y="235" as="targetPoint" />
          </mxGeometry>
        </mxCell>
        <mxCell id="zam5Z8ljLihx1HflZ7UX-38" value="" style="endArrow=classic;html=1;rounded=0;exitX=1;exitY=0.5;exitDx=0;exitDy=0;entryX=0;entryY=0.25;entryDx=0;entryDy=0;entryPerimeter=0;" parent="9DFbFG8TX5uSBaYMTuKA-1" source="zam5Z8ljLihx1HflZ7UX-8" target="ExUv6TTiYO8MmKAdNXNh-2" edge="1">
          <mxGeometry width="50" height="50" relative="1" as="geometry">
            <mxPoint x="-30" y="290" as="sourcePoint" />
            <mxPoint x="240" y="190" as="targetPoint" />
          </mxGeometry>
        </mxCell>
        <mxCell id="zam5Z8ljLihx1HflZ7UX-40" value="" style="endArrow=classic;html=1;rounded=0;exitX=1;exitY=0.5;exitDx=0;exitDy=0;entryX=0;entryY=0.25;entryDx=0;entryDy=0;entryPerimeter=0;" parent="9DFbFG8TX5uSBaYMTuKA-1" source="9DFbFG8TX5uSBaYMTuKA-31" target="ExUv6TTiYO8MmKAdNXNh-0" edge="1">
          <mxGeometry width="50" height="50" relative="1" as="geometry">
            <mxPoint x="-20" y="300" as="sourcePoint" />
            <mxPoint x="260" y="10" as="targetPoint" />
          </mxGeometry>
        </mxCell>
        <mxCell id="zam5Z8ljLihx1HflZ7UX-41" value="" style="endArrow=classic;html=1;rounded=0;exitX=1;exitY=0.5;exitDx=0;exitDy=0;entryX=0;entryY=0.25;entryDx=0;entryDy=0;entryPerimeter=0;" parent="9DFbFG8TX5uSBaYMTuKA-1" source="zam5Z8ljLihx1HflZ7UX-7" target="ExUv6TTiYO8MmKAdNXNh-1" edge="1">
          <mxGeometry width="50" height="50" relative="1" as="geometry">
            <mxPoint x="-10" y="310" as="sourcePoint" />
            <mxPoint x="240" y="80" as="targetPoint" />
          </mxGeometry>
        </mxCell>
        <mxCell id="zam5Z8ljLihx1HflZ7UX-42" value="" style="endArrow=classic;html=1;rounded=0;exitX=0.5;exitY=0;exitDx=0;exitDy=0;entryX=0;entryY=0.75;entryDx=0;entryDy=0;entryPerimeter=0;" parent="9DFbFG8TX5uSBaYMTuKA-1" source="DK-BshNHC_iG3awBFLn6-6" target="ExUv6TTiYO8MmKAdNXNh-0" edge="1">
          <mxGeometry width="50" height="50" relative="1" as="geometry">
            <mxPoint x="170" y="360" as="sourcePoint" />
            <mxPoint x="240" y="50" as="targetPoint" />
            <Array as="points">
              <mxPoint x="260" y="75" />
            </Array>
          </mxGeometry>
        </mxCell>
        <mxCell id="zam5Z8ljLihx1HflZ7UX-43" value="" style="endArrow=classic;html=1;rounded=0;entryX=0;entryY=0.75;entryDx=0;entryDy=0;entryPerimeter=0;" parent="9DFbFG8TX5uSBaYMTuKA-1" target="ExUv6TTiYO8MmKAdNXNh-1" edge="1">
          <mxGeometry width="50" height="50" relative="1" as="geometry">
            <mxPoint x="260" y="145" as="sourcePoint" />
            <mxPoint x="270" y="180" as="targetPoint" />
          </mxGeometry>
        </mxCell>
        <mxCell id="zam5Z8ljLihx1HflZ7UX-44" value="" style="endArrow=classic;html=1;rounded=0;entryX=0;entryY=0.75;entryDx=0;entryDy=0;entryPerimeter=0;" parent="9DFbFG8TX5uSBaYMTuKA-1" target="ExUv6TTiYO8MmKAdNXNh-2" edge="1">
          <mxGeometry width="50" height="50" relative="1" as="geometry">
            <mxPoint x="260" y="275" as="sourcePoint" />
            <mxPoint x="130" y="330" as="targetPoint" />
          </mxGeometry>
        </mxCell>
        <mxCell id="zam5Z8ljLihx1HflZ7UX-50" value="&lt;font style=&quot;font-size: 18px;&quot;&gt;==&lt;br&gt;&lt;/font&gt;" style="rounded=1;whiteSpace=wrap;html=1;fillColor=none;" parent="9DFbFG8TX5uSBaYMTuKA-1" vertex="1">
          <mxGeometry x="440" y="235" width="50" height="50" as="geometry" />
        </mxCell>
        <mxCell id="zam5Z8ljLihx1HflZ7UX-51" value="&lt;font style=&quot;font-size: 18px;&quot;&gt;==&lt;br&gt;&lt;/font&gt;" style="rounded=1;whiteSpace=wrap;html=1;fillColor=none;" parent="9DFbFG8TX5uSBaYMTuKA-1" vertex="1">
          <mxGeometry x="440" y="105" width="50" height="50" as="geometry" />
        </mxCell>
        <mxCell id="zam5Z8ljLihx1HflZ7UX-52" value="&lt;font style=&quot;font-size: 18px;&quot;&gt;==&lt;br&gt;&lt;/font&gt;" style="rounded=1;whiteSpace=wrap;html=1;fillColor=none;" parent="9DFbFG8TX5uSBaYMTuKA-1" vertex="1">
          <mxGeometry x="440" y="35" width="50" height="50" as="geometry" />
        </mxCell>
        <mxCell id="zam5Z8ljLihx1HflZ7UX-53" value="" style="endArrow=classic;html=1;rounded=0;exitX=1;exitY=0.5;exitDx=0;exitDy=0;entryX=0;entryY=0.5;entryDx=0;entryDy=0;" parent="9DFbFG8TX5uSBaYMTuKA-1" target="zam5Z8ljLihx1HflZ7UX-51" edge="1">
          <mxGeometry width="50" height="50" relative="1" as="geometry">
            <mxPoint x="370" y="130" as="sourcePoint" />
            <mxPoint x="660" y="270" as="targetPoint" />
          </mxGeometry>
        </mxCell>
        <mxCell id="zam5Z8ljLihx1HflZ7UX-54" value="" style="endArrow=classic;html=1;rounded=0;exitX=1;exitY=0.5;exitDx=0;exitDy=0;entryX=0;entryY=0.5;entryDx=0;entryDy=0;" parent="9DFbFG8TX5uSBaYMTuKA-1" target="zam5Z8ljLihx1HflZ7UX-50" edge="1">
          <mxGeometry width="50" height="50" relative="1" as="geometry">
            <mxPoint x="370" y="260" as="sourcePoint" />
            <mxPoint x="670" y="280" as="targetPoint" />
          </mxGeometry>
        </mxCell>
        <mxCell id="zam5Z8ljLihx1HflZ7UX-55" value="" style="endArrow=classic;html=1;rounded=0;exitX=1;exitY=0.5;exitDx=0;exitDy=0;entryX=0;entryY=0.5;entryDx=0;entryDy=0;" parent="9DFbFG8TX5uSBaYMTuKA-1" target="zam5Z8ljLihx1HflZ7UX-52" edge="1">
          <mxGeometry width="50" height="50" relative="1" as="geometry">
            <mxPoint x="370" y="60" as="sourcePoint" />
            <mxPoint x="680" y="290" as="targetPoint" />
          </mxGeometry>
        </mxCell>
        <mxCell id="zam5Z8ljLihx1HflZ7UX-56" value="&lt;font style=&quot;font-size: 18px;&quot;&gt;color index for lag 1&lt;br&gt;&lt;/font&gt;" style="rounded=1;whiteSpace=wrap;html=1;fillColor=none;" parent="9DFbFG8TX5uSBaYMTuKA-1" vertex="1">
          <mxGeometry x="509" y="85" width="95" height="50" as="geometry" />
        </mxCell>
        <mxCell id="zam5Z8ljLihx1HflZ7UX-57" value="&lt;font style=&quot;font-size: 18px;&quot;&gt;color index for lag 14&lt;br&gt;&lt;/font&gt;" style="rounded=1;whiteSpace=wrap;html=1;fillColor=none;" parent="9DFbFG8TX5uSBaYMTuKA-1" vertex="1">
          <mxGeometry x="509" y="200" width="95" height="50" as="geometry" />
        </mxCell>
        <mxCell id="zam5Z8ljLihx1HflZ7UX-58" value="" style="shape=or;whiteSpace=wrap;html=1;direction=north;fillColor=none;strokeColor=#000000;rotation=90;" parent="9DFbFG8TX5uSBaYMTuKA-1" vertex="1">
          <mxGeometry x="630" y="105" width="60" height="67.5" as="geometry" />
        </mxCell>
        <mxCell id="zam5Z8ljLihx1HflZ7UX-59" value="" style="shape=or;whiteSpace=wrap;html=1;direction=north;fillColor=none;strokeColor=#000000;rotation=90;" parent="9DFbFG8TX5uSBaYMTuKA-1" vertex="1">
          <mxGeometry x="630" y="226.25" width="60" height="67.5" as="geometry" />
        </mxCell>
        <mxCell id="zam5Z8ljLihx1HflZ7UX-60" value="" style="endArrow=classic;html=1;rounded=0;exitX=1;exitY=0.75;exitDx=0;exitDy=0;entryX=0;entryY=0.25;entryDx=0;entryDy=0;entryPerimeter=0;" parent="9DFbFG8TX5uSBaYMTuKA-1" source="9DFbFG8TX5uSBaYMTuKA-30" target="DK-BshNHC_iG3awBFLn6-0" edge="1">
          <mxGeometry width="50" height="50" relative="1" as="geometry">
            <mxPoint x="550" y="450" as="sourcePoint" />
            <mxPoint x="600" y="400" as="targetPoint" />
          </mxGeometry>
        </mxCell>
        <mxCell id="zam5Z8ljLihx1HflZ7UX-61" value="" style="endArrow=classic;html=1;rounded=0;exitX=1;exitY=0.75;exitDx=0;exitDy=0;entryX=0;entryY=0.5;entryDx=0;entryDy=0;entryPerimeter=0;" parent="9DFbFG8TX5uSBaYMTuKA-1" source="zam5Z8ljLihx1HflZ7UX-52" target="DK-BshNHC_iG3awBFLn6-0" edge="1">
          <mxGeometry width="50" height="50" relative="1" as="geometry">
            <mxPoint x="560" y="460" as="sourcePoint" />
            <mxPoint x="610" y="410" as="targetPoint" />
          </mxGeometry>
        </mxCell>
        <mxCell id="zam5Z8ljLihx1HflZ7UX-62" value="" style="endArrow=classic;html=1;rounded=0;exitX=1;exitY=0.75;exitDx=0;exitDy=0;entryX=0;entryY=0.25;entryDx=0;entryDy=0;entryPerimeter=0;" parent="9DFbFG8TX5uSBaYMTuKA-1" source="zam5Z8ljLihx1HflZ7UX-56" target="zam5Z8ljLihx1HflZ7UX-58" edge="1">
          <mxGeometry width="50" height="50" relative="1" as="geometry">
            <mxPoint x="570" y="470" as="sourcePoint" />
            <mxPoint x="620" y="420" as="targetPoint" />
          </mxGeometry>
        </mxCell>
        <mxCell id="zam5Z8ljLihx1HflZ7UX-63" value="" style="endArrow=classic;html=1;rounded=0;exitX=1;exitY=0.75;exitDx=0;exitDy=0;entryX=0;entryY=0.75;entryDx=0;entryDy=0;entryPerimeter=0;" parent="9DFbFG8TX5uSBaYMTuKA-1" source="zam5Z8ljLihx1HflZ7UX-50" target="zam5Z8ljLihx1HflZ7UX-59" edge="1">
          <mxGeometry width="50" height="50" relative="1" as="geometry">
            <mxPoint x="580" y="480" as="sourcePoint" />
            <mxPoint x="630" y="430" as="targetPoint" />
          </mxGeometry>
        </mxCell>
        <mxCell id="zam5Z8ljLihx1HflZ7UX-64" value="" style="endArrow=classic;html=1;rounded=0;exitX=1;exitY=0.5;exitDx=0;exitDy=0;entryX=0;entryY=0.25;entryDx=0;entryDy=0;entryPerimeter=0;" parent="9DFbFG8TX5uSBaYMTuKA-1" source="zam5Z8ljLihx1HflZ7UX-57" target="zam5Z8ljLihx1HflZ7UX-59" edge="1">
          <mxGeometry width="50" height="50" relative="1" as="geometry">
            <mxPoint x="590" y="490" as="sourcePoint" />
            <mxPoint x="640" y="440" as="targetPoint" />
          </mxGeometry>
        </mxCell>
        <mxCell id="zam5Z8ljLihx1HflZ7UX-65" value="" style="endArrow=classic;html=1;rounded=0;exitX=1;exitY=0.75;exitDx=0;exitDy=0;entryX=0;entryY=0.75;entryDx=0;entryDy=0;entryPerimeter=0;" parent="9DFbFG8TX5uSBaYMTuKA-1" source="zam5Z8ljLihx1HflZ7UX-51" target="zam5Z8ljLihx1HflZ7UX-58" edge="1">
          <mxGeometry width="50" height="50" relative="1" as="geometry">
            <mxPoint x="520" y="170" as="sourcePoint" />
            <mxPoint x="670" y="200" as="targetPoint" />
            <Array as="points">
              <mxPoint x="570" y="160" />
            </Array>
          </mxGeometry>
        </mxCell>
        <mxCell id="zam5Z8ljLihx1HflZ7UX-74" value="" style="group" parent="9DFbFG8TX5uSBaYMTuKA-1" vertex="1" connectable="0">
          <mxGeometry x="320" y="170" width="10" height="50" as="geometry" />
        </mxCell>
        <mxCell id="zam5Z8ljLihx1HflZ7UX-75" value="" style="ellipse;whiteSpace=wrap;html=1;aspect=fixed;fillColor=none;" parent="zam5Z8ljLihx1HflZ7UX-74" vertex="1">
          <mxGeometry y="20" width="10" height="10" as="geometry" />
        </mxCell>
        <mxCell id="zam5Z8ljLihx1HflZ7UX-76" value="" style="ellipse;whiteSpace=wrap;html=1;aspect=fixed;fillColor=none;" parent="zam5Z8ljLihx1HflZ7UX-74" vertex="1">
          <mxGeometry y="40" width="10" height="10" as="geometry" />
        </mxCell>
        <mxCell id="zam5Z8ljLihx1HflZ7UX-77" value="" style="ellipse;whiteSpace=wrap;html=1;aspect=fixed;fillColor=none;" parent="zam5Z8ljLihx1HflZ7UX-74" vertex="1">
          <mxGeometry width="10" height="10" as="geometry" />
        </mxCell>
        <mxCell id="zam5Z8ljLihx1HflZ7UX-78" value="" style="group" parent="9DFbFG8TX5uSBaYMTuKA-1" vertex="1" connectable="0">
          <mxGeometry x="660" y="175" width="10" height="50" as="geometry" />
        </mxCell>
        <mxCell id="zam5Z8ljLihx1HflZ7UX-79" value="" style="ellipse;whiteSpace=wrap;html=1;aspect=fixed;fillColor=none;" parent="zam5Z8ljLihx1HflZ7UX-78" vertex="1">
          <mxGeometry y="20" width="10" height="10" as="geometry" />
        </mxCell>
        <mxCell id="zam5Z8ljLihx1HflZ7UX-80" value="" style="ellipse;whiteSpace=wrap;html=1;aspect=fixed;fillColor=none;" parent="zam5Z8ljLihx1HflZ7UX-78" vertex="1">
          <mxGeometry y="40" width="10" height="10" as="geometry" />
        </mxCell>
        <mxCell id="zam5Z8ljLihx1HflZ7UX-81" value="" style="ellipse;whiteSpace=wrap;html=1;aspect=fixed;fillColor=none;" parent="zam5Z8ljLihx1HflZ7UX-78" vertex="1">
          <mxGeometry width="10" height="10" as="geometry" />
        </mxCell>
        <mxCell id="zam5Z8ljLihx1HflZ7UX-86" value="" style="endArrow=classic;html=1;rounded=0;exitX=0.5;exitY=0;exitDx=0;exitDy=0;entryX=0;entryY=0.75;entryDx=0;entryDy=0;" parent="9DFbFG8TX5uSBaYMTuKA-1" source="DK-BshNHC_iG3awBFLn6-3" target="zam5Z8ljLihx1HflZ7UX-52" edge="1">
          <mxGeometry width="50" height="50" relative="1" as="geometry">
            <mxPoint x="561.5" y="450" as="sourcePoint" />
            <mxPoint x="611.5" y="400" as="targetPoint" />
            <Array as="points">
              <mxPoint x="410" y="73" />
            </Array>
          </mxGeometry>
        </mxCell>
        <mxCell id="zam5Z8ljLihx1HflZ7UX-87" value="" style="endArrow=classic;html=1;rounded=0;entryX=0;entryY=0.75;entryDx=0;entryDy=0;" parent="9DFbFG8TX5uSBaYMTuKA-1" target="zam5Z8ljLihx1HflZ7UX-51" edge="1">
          <mxGeometry width="50" height="50" relative="1" as="geometry">
            <mxPoint x="410" y="143" as="sourcePoint" />
            <mxPoint x="621.5" y="410" as="targetPoint" />
          </mxGeometry>
        </mxCell>
        <mxCell id="zam5Z8ljLihx1HflZ7UX-88" value="" style="endArrow=classic;html=1;rounded=0;entryX=0;entryY=0.75;entryDx=0;entryDy=0;" parent="9DFbFG8TX5uSBaYMTuKA-1" target="zam5Z8ljLihx1HflZ7UX-50" edge="1">
          <mxGeometry width="50" height="50" relative="1" as="geometry">
            <mxPoint x="410" y="273" as="sourcePoint" />
            <mxPoint x="631.5" y="420" as="targetPoint" />
          </mxGeometry>
        </mxCell>
        <mxCell id="zam5Z8ljLihx1HflZ7UX-89" value="" style="endArrow=classic;html=1;rounded=0;entryX=0.25;entryY=1;entryDx=0;entryDy=0;" parent="9DFbFG8TX5uSBaYMTuKA-1" target="zam5Z8ljLihx1HflZ7UX-1" edge="1">
          <mxGeometry width="50" height="50" relative="1" as="geometry">
            <mxPoint x="260" y="300" as="sourcePoint" />
            <mxPoint x="710" y="360" as="targetPoint" />
            <Array as="points">
              <mxPoint x="910" y="300" />
            </Array>
          </mxGeometry>
        </mxCell>
        <mxCell id="zam5Z8ljLihx1HflZ7UX-90" value="" style="endArrow=classic;html=1;rounded=0;entryX=0.75;entryY=1;entryDx=0;entryDy=0;" parent="9DFbFG8TX5uSBaYMTuKA-1" target="zam5Z8ljLihx1HflZ7UX-1" edge="1">
          <mxGeometry width="50" height="50" relative="1" as="geometry">
            <mxPoint x="410" y="315" as="sourcePoint" />
            <mxPoint x="940" y="400" as="targetPoint" />
            <Array as="points">
              <mxPoint x="970" y="315" />
            </Array>
          </mxGeometry>
        </mxCell>
        <mxCell id="zam5Z8ljLihx1HflZ7UX-91" value="" style="endArrow=classic;html=1;rounded=0;exitX=1;exitY=0.5;exitDx=0;exitDy=0;exitPerimeter=0;entryX=0.175;entryY=0.25;entryDx=0;entryDy=0;entryPerimeter=0;" parent="9DFbFG8TX5uSBaYMTuKA-1" source="DK-BshNHC_iG3awBFLn6-0" target="7M_Q38QbQxJL7odkyX7O-1" edge="1">
          <mxGeometry width="50" height="50" relative="1" as="geometry">
            <mxPoint x="710" y="430" as="sourcePoint" />
            <mxPoint x="760" y="380" as="targetPoint" />
          </mxGeometry>
        </mxCell>
        <mxCell id="zam5Z8ljLihx1HflZ7UX-92" value="" style="endArrow=classic;html=1;rounded=0;exitX=1;exitY=0.5;exitDx=0;exitDy=0;exitPerimeter=0;entryX=0.25;entryY=0.5;entryDx=0;entryDy=0;entryPerimeter=0;" parent="9DFbFG8TX5uSBaYMTuKA-1" source="zam5Z8ljLihx1HflZ7UX-58" target="7M_Q38QbQxJL7odkyX7O-1" edge="1">
          <mxGeometry width="50" height="50" relative="1" as="geometry">
            <mxPoint x="720" y="440" as="sourcePoint" />
            <mxPoint x="770" y="390" as="targetPoint" />
          </mxGeometry>
        </mxCell>
        <mxCell id="zam5Z8ljLihx1HflZ7UX-93" value="" style="endArrow=classic;html=1;rounded=0;exitX=1;exitY=0.5;exitDx=0;exitDy=0;exitPerimeter=0;entryX=0.175;entryY=0.75;entryDx=0;entryDy=0;entryPerimeter=0;" parent="9DFbFG8TX5uSBaYMTuKA-1" source="zam5Z8ljLihx1HflZ7UX-59" target="7M_Q38QbQxJL7odkyX7O-1" edge="1">
          <mxGeometry width="50" height="50" relative="1" as="geometry">
            <mxPoint x="730" y="450" as="sourcePoint" />
            <mxPoint x="780" y="400" as="targetPoint" />
          </mxGeometry>
        </mxCell>
        <mxCell id="ExUv6TTiYO8MmKAdNXNh-0" value="" style="verticalLabelPosition=bottom;shadow=0;dashed=0;align=center;html=1;verticalAlign=top;shape=mxgraph.electrical.logic_gates.logic_gate;operation=xor;" vertex="1" parent="9DFbFG8TX5uSBaYMTuKA-1">
          <mxGeometry x="280" y="30" width="100" height="60" as="geometry" />
        </mxCell>
        <mxCell id="ExUv6TTiYO8MmKAdNXNh-1" value="" style="verticalLabelPosition=bottom;shadow=0;dashed=0;align=center;html=1;verticalAlign=top;shape=mxgraph.electrical.logic_gates.logic_gate;operation=xor;" vertex="1" parent="9DFbFG8TX5uSBaYMTuKA-1">
          <mxGeometry x="280" y="100" width="100" height="60" as="geometry" />
        </mxCell>
        <mxCell id="ExUv6TTiYO8MmKAdNXNh-2" value="" style="verticalLabelPosition=bottom;shadow=0;dashed=0;align=center;html=1;verticalAlign=top;shape=mxgraph.electrical.logic_gates.logic_gate;operation=xor;" vertex="1" parent="9DFbFG8TX5uSBaYMTuKA-1">
          <mxGeometry x="280" y="229.5" width="100" height="60" as="geometry" />
        </mxCell>
      </root>
    </mxGraphModel>
  </diagram>
</mxfile>
